<svg viewBox="0 0 445.7 365.9" xml:space="preserve" xmlns="http://www.w3.org/2000/svg" enable-background="new 0 0 445.7 365.9"><g id="Layer_4"><path d="M335.7 282.9c-18.8-50.1.4-90.8.6-91.3l.9.4c-.2.4-19.1 40.8-.5 90.5l-1 .4z" fill="#d4edff" class="fill-d4edff"></path><path d="M336.1 193.1s-.5-3.2 1-6.1c.5-1 2.3-2.4 3.2-1.9 1 .5 1 2.2.2 3.8-1.5 2.8-4.4 4.2-4.4 4.2zM334.3 198.4s1.3-2.6 3.9-4c.9-.5 2.9-.7 3.4.2.4.8-.4 2.1-1.8 2.9-2.6 1.3-5.5.9-5.5.9zM332 207.7s1.4-2.3 3.7-3.1c.9-.3 2.6 0 2.9.9.3.9-.5 2.1-1.8 2.5-2.3.8-4.8-.3-4.8-.3z" fill="#d4edff" class="fill-d4edff"></path><path d="M334.7 198.2s-2.6-.4-4.2-2.3c-.6-.7-1-2.4-.2-3 .8-.6 2.1-.3 2.9.7 1.5 1.9 1.5 4.6 1.5 4.6zM329.4 257.7s-2.7.5-5.1-.7c-.9-.4-2.1-1.8-1.7-2.7.4-.8 1.8-.9 3.1-.3 2.5 1.3 3.7 3.7 3.7 3.7zM331.5 207.5s-3-.7-4.9-3c-.7-.8-1.3-2.8-.5-3.5.8-.7 2.3-.1 3.3 1.1 1.9 2.4 2.1 5.4 2.1 5.4zM329.2 217.5s-3-.2-4.8-2.3c-.6-.7-.9-2.6 0-3.4.9-.8 2.5-.5 3.4.6 1.6 2 1.4 5.1 1.4 5.1zM329.9 217.4s1-2.8 3.4-4.1c.9-.5 2.8-.4 3.3.6s-.2 2.4-1.4 3.1c-2.4 1.2-5.3.4-5.3.4zM329.8 258.1s-.2-2.5 1.6-4.9c.6-.9 2.4-2 3.3-1.7.9.3.8 1.7-.2 3-1.8 2.3-4.7 3.6-4.7 3.6zM327.9 237.1s1.1-1.6 3.6-2.3c.9-.3 2.8-.2 3.3.3.5.6-.3 1.4-1.6 1.8-2.4.7-5.3.2-5.3.2zM327.9 227.9s-1.8-.4-3.1-2.3c-.5-.7-1-2.4-.6-3 .4-.6 1.3-.2 2 .8 1.4 1.9 1.7 4.5 1.7 4.5zM328.7 248.2s0-3.2 1.2-5.2c.5-.7 1.7-1.3 2.3-.4.6.9.5 2.5-.2 3.5-1.3 2-3.3 2.1-3.3 2.1z" fill="#d4edff" class="fill-d4edff"></path><path d="M328.1 237.5s-3.7-.5-6.1-2.2c-.9-.6-1.6-2.2-.7-2.7.9-.5 2.8-.2 4.1.8 2.5 1.7 2.7 4.1 2.7 4.1zM328.3 248.6s-3.5-.5-5.6-2.1c-.8-.6-1.3-2.1-.3-2.6s2.8-.1 3.9.8c2 1.6 2 3.9 2 3.9zM364.4 206.6s-2.7.5-5.1-.7c-.9-.4-2.1-1.8-1.7-2.7.4-.8 1.8-.9 3.1-.3 2.5 1.3 3.7 3.7 3.7 3.7zM334.1 276s-.2-2.5 1.6-4.9c.6-.9 2.4-2 3.3-1.7.9.3.8 1.7-.2 3-1.7 2.3-4.7 3.6-4.7 3.6zM331.5 267.2s.1-2 1.9-3.9c.6-.7 2.3-1.7 3.1-1.4.7.2.5 1.3-.4 2.3-1.9 1.9-4.6 3-4.6 3zM339.7 226.9s1.1-2.8 2.9-4.2c.7-.5 2-.7 2.2.1.2.9-.5 2.2-1.4 3-1.8 1.5-3.7 1.1-3.7 1.1zM334 276.4s-3.7 0-6.4-1.5c-1-.5-1.9-2-1-2.6.9-.6 2.8-.5 4.2.3 2.7 1.4 3.2 3.8 3.2 3.8zM331.4 267.4s-3.4 0-5.5-1.4c-.8-.5-1.4-1.8-.5-2.4.9-.6 2.6-.5 3.8.2 2.1 1.4 2.2 3.6 2.2 3.6zM328.2 228.5s.9-2.3 3.5-4.2c.9-.7 3.1-1.4 3.7-1 .7.5 0 1.7-1.4 2.7-2.5 1.9-5.8 2.5-5.8 2.5zM95.5 303.9c-1.9-7.5 2.9-13.2 17.7-15 16.2-2 30.8 2 42.4 7.6-25.5-24.7-54.5-58.6-23-59 9.8-.1 23.5 8.6 38.2 21.5-14.7-25-21.7-45-10-47.4 10.9-2.2 28.9 18.7 47.4 45.9-9.4-22.2-13.9-41.2-6.8-49.2 5.8-6.6 14.5 2.5 23.6 18.6 1.6-13.2 6.4-20.8 14.3-18.3 7.4 2.3 11.2 18.1 12.7 36.8 11.9-27.6 34.1-42.9 52.3-32.3 21.4 12.4-8 78.4-23.4 109.6L95.5 303.9z" fill="#d4edff" class="fill-d4edff"></path><path d="M373.3 285.5c-15.4 6.8-25.5 20.6-28.5 36.1 13.4 8.3 30.4 10 45.8 3.2 15.4-6.8 25.5-20.6 28.5-36.1-13.4-8.2-30.4-10-45.8-3.2z" fill="#acd4f8" class="fill-acd4f8"></path><path d="m413.2 291.1-65.6 29M399.7 297.1l11 5.2M388.5 302.1l13.6 6.4M377.3 307l22.7 10.7M366.1 312l22.1 10.4M354.9 316.9l12.3 5.8M400.9 296.3l3.6-11.6M389.7 301.3l5.6-18.2M378.6 306.2l6.9-22.7M367.4 311.2l7.1-23.4M356.2 316.1l6.1-20" fill="none" stroke="#ffffff" stroke-width=".9044" stroke-miterlimit="10" class="stroke-ffffff"></path><path d="M323.6 280.8c-10.5 15.3-12.1 34.2-5.9 50.4 17.4 0 34.5-8.2 45-23.5s12.1-34.2 5.9-50.4c-17.4 0-34.5 8.2-45 23.5z" fill="#acd4f8" class="fill-acd4f8"></path><path d="m364.4 263-45 65.3M355.2 276.5l13.3-1.5M347.5 287.6l16.5-1.8M339.9 298.8l27.5-3.1M332.2 309.9l26.8-3M324.5 321.1l15-1.7M355.9 275l-3.4-13M348.2 286.2l-5.2-20.3M340.6 297.3l-6.6-25.4M332.9 308.4l-6.8-26.1M325.3 319.6l-5.9-22.4" fill="none" stroke="#ffffff" stroke-width=".9993" stroke-miterlimit="10" class="stroke-ffffff"></path><path d="M354.4 312.8c-28.4-.4-116.3-2-169.7-6.5-98.9-8.5-179.7 5.3-126.6 21.2 14.8 4.4-27.9 30.9 76.8 37 91.9 5.3 185.6-5.9 231-10.7 45.4-4.8 66.3-13.4 76-17.2 8.5-3.5 11.6-22.5-87.5-23.8z" fill="#e9f6ff" class="fill-e9f6ff"></path><path d="M354.6 235.6s-1-3.4.3-6.4c.5-1.1 2.2-2.6 3.4-2.1 1.1.5 1.5 2.3.8 3.9-1.3 3-4.5 4.6-4.5 4.6zM352.8 240.8s1.6-2.6 4.3-3.5c1-.3 3 0 3.3 1 .4 1.1-.6 2.3-2 2.8-2.8.9-5.6-.3-5.6-.3zM349.5 246.4s2.5-1.8 5.4-1.5c1 .1 2.7 1.2 2.6 2.3-.1 1.1-1.5 1.9-3 1.7-2.9-.3-5-2.5-5-2.5zM352.7 240.9s-2.6-1.2-4.1-3.6c-.5-.9-.8-2.8 0-3.3s2.1.3 2.9 1.6c1.4 2.5 1.2 5.3 1.2 5.3z" fill="#8dcfff" class="fill-8dcfff"></path><path d="M349.9 246.6s-2.7-1.1-4.1-3.6c-.5-.9-.8-2.8 0-3.3s2.2.2 2.9 1.5c1.5 2.5 1.2 5.4 1.2 5.4zM344.7 253.6s-2.4-.6-3.5-2.5c-.4-.7-.4-2.3.4-2.7.8-.5 2 0 2.6 1 1.1 1.7.5 4.2.5 4.2zM345 253.7s1.8-1.5 4.1-1.7c.8 0 2.3.5 2.4 1.3 0 .8-1 1.5-2.2 1.6-2.4.2-4.3-1.2-4.3-1.2z" fill="#8dcfff" class="fill-8dcfff"></path><path d="M330.4 285.6c.5.5 1 .7 1 .7l.2-.5-.1.3.1-.3c-.1 0-1.3-.5-1.8-2.4-.6-2.1-.1-5.1 1.5-8.9 2.2-5.2 6.5-11.7 12.6-19.3 7.1-8.9 9.2-14.7 10.6-18.6.4-1 .7-1.8 1-2.5l-.5-.2c-.3.7-.6 1.6-1 2.6-1.4 3.8-3.4 9.6-10.5 18.4-13.7 17-15.3 25-14.3 28.7.3 1 .7 1.6 1.2 2z" fill="#8dcfff" class="fill-8dcfff"></path><path d="M134 335.2c2-3.1-.5-5.7-10-7.1-10.4-1.5-20.3-.5-28.4 1.4 19.2-9.3 41.7-22.4 21.2-23.9-6.4-.5-16.2 2.6-27.1 7.4 12.2-9.9 18.9-18.1 11.5-19.6-6.8-1.4-20.8 6.7-35.7 17.4 8.5-9 13.4-16.8 9.6-20.5-3.1-3-9.7.4-17.4 6.9.3-5.6-2-9-7.4-8.4-5.1.6-9.2 7.2-12.1 15-4.9-12.1-17.8-19.6-30.7-15.9-15.3 4.3-3 33.4 3.8 47.2H134z" fill="#acd4f8" class="fill-acd4f8"></path><path d="m55.2 322.4-.7-.2c5-16.6 13.9-40.8 28.3-62.1 8.6-12.7 15.2-18.4 15.3-18.5l.5.6c-.1.1-6.6 5.7-15.2 18.4-8 11.6-19.3 31.8-28.2 61.8zM51.5 315.9l-.7-.1c2.8-34.5 20.2-64.2 20.4-64.5l.6.4c-.2.3-17.5 29.9-20.3 64.2z" fill="#acd4f8" class="fill-acd4f8"></path><path d="m64.5 319.2-.7-.1c1.4-16.6 8.4-27.1 14.1-33 6.1-6.4 12-8.9 12.1-8.9l.3.7c-.1 0-5.8 2.5-11.9 8.8-5.6 5.8-12.5 16.1-13.9 32.5zM101.5 237.3c4.8 3.3 7.5 7.6 6.2 9.5-1.4 1.9-6.3.8-11.1-2.6-4.8-3.3-7.5-7.6-6.2-9.5 1.4-1.9 6.3-.8 11.1 2.6z" fill="#acd4f8" class="fill-acd4f8"></path><path d="M99.8 239.6c1.5 1.1 2.4 2.4 2 3-.4.6-2 .2-3.5-.8-1.5-1.1-2.4-2.4-2-3 .4-.6 2-.2 3.5.8z" fill="#0d9488" class="fill-0063cb"></path><path d="M72.8 249.6c2 1.4 3.1 3.2 2.6 4-.6.8-2.6.3-4.6-1.1-2-1.4-3.1-3.2-2.6-4 .6-.7 2.6-.3 4.6 1.1z" fill="#acd4f8" class="fill-acd4f8"></path><path d="M72.1 250.6c.6.4 1 1 .8 1.3-.2.3-.8.1-1.5-.3-.6-.4-1-1-.8-1.3.2-.3.9-.1 1.5.3z" fill="#0d9488" class="fill-0063cb"></path><path d="M91.8 276.1c2 2.4 2.8 5 1.9 5.8-1 .8-3.4-.5-5.4-2.9-2-2.4-2.8-5-1.9-5.8 1-.8 3.4.5 5.4 2.9z" fill="#acd4f8" class="fill-acd4f8"></path><path d="M90.6 277.1c.6.8.9 1.6.6 1.8-.3.3-1.1-.2-1.7-.9-.6-.8-.9-1.6-.6-1.8.3-.3 1.1.1 1.7.9z" fill="#0d9488" class="fill-0063cb"></path><path d="M76.8 314.5c.1-.1.2-.1.2-.2h-.1c-1.1-.4-1.9-1.3-1.6-1.9.2-.6 1.3-.7 2.5-.3.1 0 .2.1.3.1v-.1c-.2-1.2.2-2.3.8-2.4.6-.1 1.3.8 1.5 2v.3l.1-.1c1-.8 2.1-1 2.5-.5.4.5-.1 1.5-1 2.3-.1.1-.2.1-.2.2h.1c1.1.4 1.9 1.3 1.6 1.9-.2.6-1.3.7-2.5.3-.1 0-.2-.1-.3-.1v.1c.2 1.2-.2 2.3-.8 2.4-.6.1-1.3-.8-1.5-2v-.3l-.1.1c-1 .8-2.1 1-2.5.5-.4-.5.1-1.5 1-2.3zm2.8.8c.7-.1 1.1-.7 1-1.4-.1-.7-.7-1.1-1.4-1-.7.1-1.1.7-1 1.4.1.7.7 1.2 1.4 1z" fill="#ffffff" class="fill-ffffff"></path><path d="m358.2 145.8-11.1 54.8h61v48.7h-70.3l-18.2 95.9h-52l18.5-95.9h-45.9l-18 95.9h-50.9l17.5-95.9h-56.3v-48.7H198l11.1-54.8h-59.6V96.4h68.4L236.2 0H288l-18.2 96.4h46.9L335.1 0H386l-18.5 96.4h56.8v49.4h-66.1zm-108.8 54.8h46.4l11.1-54.8h-46.4l-11.1 54.8z" fill="#0d9488" class="fill-2b83fd"></path><path d="M248 88.3c14-.4 12.9 6.4 13.5 15.3.6 8.9-3.5 27.1-12.2 31.3-8.7 4.2-12.3 15.2-15.4 7.8-3.6-8.6-8.1-3.1-12.3-7.3-7.4-7.3-5.2-16.8 3.1-22.8 8.2-6 8-8 8.9-13.9 1-5.9 10.1-10.2 14.4-10.4z" fill="#163f59" class="fill-163f59"></path><path d="M247.2 123.9c-2.9-.4-18.2 13.1-22.2 16.8-4 3.7-8.1 8.8-3.9 8.8 4.2 0 8.7-3.6 12.1-6 3.4-2.4 7.9-6 10.4-7.6 2.5-1.7 6.5-11.6 3.6-12z" fill="#deccaf" class="fill-deccaf"></path><path d="M225.8 152.9s-1.9-11.1-7.9-19.3c-6.1-8.2-8.5-14.1-8.5-14.1l-3.3.5s9.1 21.9 11.3 25.5c2.1 3.6 2.2 3.1 8.4 7.4zM198 113.7l-.4-3.5s1.2 1 1.4 2.2c.1 1.1.3 2.4.3 2.4l-1.3-1.1zM200.8 116l-.8-2.2 1.2-1.9s.6.2.2 2.1c-.1.4.9 2.8.9 2.8l-1.5-.8z" fill="#deccaf" class="fill-deccaf"></path><path d="M208.7 122s-4.3-1.4-8.6-4.6c-4.2-3.1-3.5-4.2-4.2-5.6-.7-1.5-1.9-3.5-.4-2.3 1.5 1.2 2.8 4.1 3.6 4.8.8.6 2.2 1 3.5 1.5 1.3.6 2.2 1.1 1.2-.1-1-1.1-1.3-1.5-1.5-2-.2-.5-.6-1.2 0-1.6.5-.3.9.8 1.2 1.2.3.4 2.6 1.7 3 2.1.5.4 1.4 2.2 2 3.4.7 1.1 2.5 5.8 1.6 6.5.1-.1-.1-2.8-1.4-3.3z" fill="#deccaf" class="fill-deccaf"></path><path d="M145.8 242s-2.8 6.9-4.7 10.1c-1.9 3.2-3.5 5.3-4.3 8.1-.8 2.8 10.5-.7 11.8-2.5 1.3-1.9 1.5-8.1 6.1-12.8 4.6-4.7-8.9-2.9-8.9-2.9z" fill="#e9d6b8" class="fill-e9d6b8"></path><path d="M194.3 180s-34 13.8-37.4 17.9c-3.4 4.1-9.2 35.7-11.6 44.2-.5 1.8 7.7 4.3 10 3 2.3-1.3 12.3-19.9 14-24.7 1.8-5.3 1.2-11.7 2.6-12.3 3-1.3 33.3-8.8 37.6-11.7 4.3-2.9 16.8-13.2 15.5-16.5-1.3-3.5-30.7.1-30.7.1z" fill="#f99b1c" class="fill-f99b1c"></path><path d="M151.3 249.9s2.2 2.8 2.8 4c.6 1.2 1.9 2.4.9 3.7-1.1 1.3-5.2 3.9-8.3 8.3-3.1 4.4-8.7 9.4-12.3 11.1-3.6 1.7-9 1.2-9-.7 0-1.8 2.9-4.4 4.4-5.4 1.5-1 7.5-13 8.2-14.8.8-1.9 1.9-2.8 3.4-1.9 1.5.9 3.4 1.4 5.9-.4 2.5-1.9 4-3.9 4-3.9z" fill="#0d9488" class="fill-0063cb"></path><path d="M147.3 253.7c-2.5 1.8-4.4 1.2-5.9.4-1.5-.9-2.7 0-3.4 1.9-.8 1.9-6.8 13.9-8.2 14.8-1.5 1-4.4 3.5-4.4 5.4v.3c1.7.8 5.4.6 8.1-.6 3.7-1.7 9.3-6.8 12.6-11.2 3.2-4.4 7.4-7.1 8.5-8.4.3-.3.4-.6.4-.9-.3-.5-.6-.9-.8-1.4-.5-1.2-2.8-4-2.8-4s-1.6 1.9-4.1 3.7z" fill="#0253a2" class="fill-0253a2"></path><path d="M188.6 188.9c-1.2-1.2-3-3.6-4-4.9-10.3 4.4-25.6 11.2-27.8 13.9-3.4 4.1-9.2 35.7-11.6 44.2-.2.7.9 1.5 2.4 2.1 1.3-3 2.8-6.8 4.6-9.1 3.3-4.4 6.2-12.6 9.3-19.5 3.1-6.9.1-12.2 4.3-14.3 4.3-2.3 24.5-10.7 22.8-12.4z" fill="#ffaa00" class="fill-ffaa00"></path><path d="M248.8 152.5s-5.4 5.6-7.2 11c-1.7 5.4 2.3 19.8-7.3 30.2-4.9 5.3-33.3 2.5-33.3 2.5 23.1-37.2 24.4-43.2 23.1-47.5-1.4-4.4-.1-6.4 4.4-9.8 4.4-3.4 7.7-6.4 8.7-10.3.9-4 35.9-11.1 11.6 23.9z" fill="#0253a2" class="fill-0253a2"></path><path d="M258.3 127.4s-1.8-1.4-2.1-7.4c-.3-6-.5-9.1.8-11.3 1.2-2.1-11.6-2.6-11.8 1.8-.3 4.4-1 5 .3 9.7 1.3 4.6-3.3 5.9-4.3 6.3-2.1.8-7.9 7.6 17.1.9z" fill="#e9dbc4" class="fill-e9dbc4"></path><path d="M248.2 102.5c2.3.5 4.6.7 6.7.2-1.7 10.3-11.2 11.7-11.5 11.7-.3 0-.7.1-1.1-.4-.5-.4-.7-1-.7-1.3 0-.3.2-.7.1-.7s-.8-.2-1-.2c-.2 0-.4-.5-.4-.5l.3-.6c-.9-.2-1.1-.6-1.2-.8-.1-.2.1-.6.3-1 .1-.3-.1-1-.3-1.2-.2-.2-1.1-.4-1.3-.6-.2-.2-.5-.6-.4-.8.1-.1.4-.5 1-1.3s1.1-2.4.4-4.8c-.8-2.4-.2-3 0-3.7.1-.7 1.5 4.3 9.1 6z" fill="#e9dbc4" class="fill-e9dbc4"></path><path d="M244.8 89.6c1.2-.5 12.9-2.4 18.5 2.8 5.6 5.2 7.1 13 4.4 20.2-2.7 7.2-7.4 12.9-1.2 16.7 19.8 12.1 9.4 17.1 5.8 21.2-7 8-23.7 6.8-24.3 1.3-.7-6.8 12.6-19 5.1-23.5-5.6-3.3-7.4-5.1-6-13.1 1.4-8.1 9.5-10.6 4.7-12.2-5.8-2.1-17.3-9.3-7-13.4z" fill="#194866" class="fill-194866"></path><path d="M253.2 130.4c-4.1.8-16.7 23.4-20.3 29.6-3.6 6.2-6.8 14.1-1.1 12.2 5.7-1.9 9.9-8.2 13.3-12.6 3.4-4.4 7.8-10.7 10.4-13.7 2.5-3 1.8-16.3-2.3-15.5z" fill="#e9dbc4" class="fill-e9dbc4"></path><path d="M188.8 232.3s4.3 6.6 4.6 9.1c.2 2.4.5 4.1 2.6 3.6 2.1-.5 5.3-6.1 4.8-7.9-.5-1.8-5.4-6-6.1-8.8-.7-2.8-5.9 5.2-5.9 5.2v-1.2z" fill="#e9d6b8" class="fill-e9d6b8"></path><path d="M197.5 232.2s2.9 1.3 4.6 1.5c1.7.2 4.2 1.8 3.9 5.1-.3 3.4-1 10.1-.9 14.4.1 4.2-3.9 11.2-5 12.7-1.7 2.3-5.6 2.3-6.5.3-.9-2 .2-7.6.3-10.5.1-2.9-1.2-12.3-1.3-13.4-.1-1.1 3.2-3.6 4.4-2.3 1.2 1.4 2.3-.2 2.3-1.3s-1.8-6.5-1.8-6.5z" fill="#0d9488" class="fill-0063cb"></path><path d="M204.6 238.5c.2-2.7-1.3-4.2-2.8-4.8l-1.2-.3c-.9-.1-2-.5-2.9-.8.4 1.2 1.7 5.3 1.7 6.2 0 1-1.1 2.6-2.3 1.3-.4.3-.9.3-1.5-.3-1.4.3-3 1.8-2.9 2.6.1 1.1 1.4 10.6 1.3 13.4-.1 2.9-1.1 8.5-.3 10.5.2.5.6.9 1.1 1.1 1.4 0 3-.5 3.9-1.7 1.1-1.4 5-8.4 5-12.7-.1-4.4.6-11.2.9-14.5z" fill="#0253a2" class="fill-0253a2"></path><path d="M213.1 179c-7.2.1-40.3-2.4-44.9 1.6-4.7 4 3 15.3 27.1 20.7 24.1 5.3 28.7 3.8 36.4-3.8 7.8-7.7-13.2-18.5-18.6-18.5z" fill="#fec00f" class="fill-fec00f"></path><path d="M178.5 189.9s12.8 10.6 13.8 22.3c1 11.7 3.5 17.1 3.5 17.1l-7 4s-21.4-32.7-23-39.3c-1.6-6.6-1-13.7 3.7-12.6 4.7 1.1 9 8.5 9 8.5z" fill="#fec00f" class="fill-fec00f"></path><path d="M188.7 233.3c.1 0 .1.1 0 0l6.1-3.5-6.1 3.5z" fill="#89d5da" class="fill-89d5da"></path><path d="M175.2 192.3c4.7 4.7 13.2 10.9 15.1 21.8 1.6 9.3 4 14.5 4.6 15.8l.9-.5s-2.5-5.4-3.5-17.1c-1-11.7-14.2-20.7-14.2-20.7s-5.8-2.2-2.9.7z" fill="#ffaa00" class="fill-ffaa00"></path><path d="M213.1 179h-1c3 1.3 6.8 3 8.3 3.9 2.6 1.6 1.9 4.3-3.4 5.6-5.3 1.3-24.3 1.9-29.6.2-5.2-1.6-14.8-3.5-14.1-1.1.3.9 3.5 2.1 4.1 3.1 2.9 2.1 2.9 5.9 7.8 7.7 3 1.1 6.3 2 10.1 2.9 24.1 5.3 28.7 3.8 36.4-3.8 2.8-2.8 4.7-5.8 5.7-9 1.8-5.5-18.9-9.5-24.3-9.5z" fill="#ffaa00" class="fill-ffaa00"></path><path d="M198 174.8s-.1-.8-.8-.8c-1.1.1-3 1.2-3.7 1.6-.7.5-3.9 3.2-3.9 3.2s1.6 0 2.8-1.1c1.9-1.6 5.6-2.9 5.6-2.9z" fill="#e2c59c" class="fill-e2c59c"></path><path d="M197.5 175.1c-1.6.2-2.8 1.5-4 3.4-1.1 1.8-2.4 1.9-2.4 1.9s.6-1.2 2.5-3.9c.6-.7 1.2-1.5 2-2 2.3-1.3 5.9 0 1.9.6z" fill="#e2c59c" class="fill-e2c59c"></path><path d="M230.1 172.6c-7.6.5-19.8.8-19.8.8s-16.8 2.3-1-3.5c3.4-1.2 12.4-5.3 25.1-6.8 1.4-.2.7.2 2.1.7 2.6.9-.2 8.3-6.4 8.8z" fill="#e9dbc4" class="fill-e9dbc4"></path><path d="M196 176.1v-.8l2-1.9s4.6-1.7 6.6-1.7 9-2.8 9.9-2.9c.9-.1 3.3 3.5 3.3 3.5s-7.7 1-10.8 1.7c-3 .7-7 3.1-8.2 3.4-2 .5-3 .9-3 .9s-.1-1.1 3-2.1c.8-.3.1-1 .1-1l-2.9.9z" fill="#e9dbc4" class="fill-e9dbc4"></path><path d="M198.7 174s-2.4.7-3.2 1.7c-.5.7-2.6 4.4-2.6 4.4s1.5-.6 2.3-2c1.3-2.2 3.5-4.1 3.5-4.1z" fill="#e9d6b8" class="fill-e9d6b8"></path><path d="M198.9 175.3s.5.5.5.8c.2-.1.4-.3.5-.4.3-.3 2.8-1.7 2.8-1.7s-2 .7-2.6.7c-.4 0-1.2.4-1.9.6-.1 0-.2.1-.3.2l1-.2z" fill="#e2c59c" class="fill-e2c59c"></path><path d="M198.8 176.3c-2.1.7-2.7 1.4-2.9 1.8.5-.2 1.3-.4 2.4-.7.4-.1 1.2-.5 2.1-.9.2-.1-.1-.8 1.2-2 .2-.2-1.6.4-2.6.9.2.2.5.7-.2.9z" fill="#e2c59c" class="fill-e2c59c"></path><path d="M213.8 179v-1.1h-44.7v1.1l.1.2c.6.9 1.6 1.1 2.8 1.1h38.9c1.2 0 2.2-.2 2.8-1.1l.1-.2z" fill="#73a9ff" class="fill-73a9ff"></path><path d="m203 179.2.1.2c.2.2.4.4.7.6h6.8c1.1 0 2.1-.1 2.7-.9l.1-.2v-.5H203v.8z" fill="#7dc2f5" class="fill-7dc2f5"></path><path d="M174.7 178.2H197v.8h-22.3z" fill="#ea580c" class="fill-387bff"></path><path d="m202.8 177.9-5.8-22c-.2-.6-.7-1-1.3-1h-31.4c-.6 0-.9.5-.8 1l5.8 22h33.5z" fill="#8dcfff" class="fill-8dcfff"></path><path d="M185.1 166.4c.3 1.1-.4 2-1.5 2s-2.3-.9-2.6-2c-.3-1.1.4-2 1.5-2s2.3.9 2.6 2z" fill="#73a9ff" class="fill-73a9ff"></path></g></svg>